<svg xmlns="http://www.w3.org/2000/svg" viewBox="0 0 512 512">
  <defs>
    <linearGradient id="bg" x1="0" y1="0" x2="1" y2="1">
      <stop offset="0%" stop-color="#1a1a2e"/>
      <stop offset="100%" stop-color="#16213e"/>
    </linearGradient>
    <linearGradient id="accent" x1="0" y1="0" x2="1" y2="1">
      <stop offset="0%" stop-color="#4fc3f7"/>
      <stop offset="100%" stop-color="#339af0"/>
    </linearGradient>
  </defs>
  <rect width="512" height="512" fill="url(#bg)" rx="80"/>
  <!-- Pixel grid icon -->
  <rect x="80" y="100" width="200" height="200" fill="none" stroke="#4fc3f7" stroke-width="4" rx="8"/>
  <rect x="90" y="110" width="40" height="40" fill="#4fc3f7" rx="4"/>
  <rect x="140" y="110" width="40" height="40" fill="#40c057" rx="4"/>
  <rect x="190" y="110" width="40" height="40" fill="#ffd43b" rx="4"/>
  <rect x="240" y="110" width="30" height="40" fill="#7950f2" rx="4"/>
  <rect x="90" y="160" width="40" height="40" fill="#ff6b6b" rx="4"/>
  <rect x="140" y="160" width="40" height="40" fill="#22b8cf" rx="4"/>
  <rect x="190" y="160" width="40" height="40" fill="#f59f00" rx="4"/>
  <rect x="240" y="160" width="30" height="40" fill="#e64980" rx="4"/>
  <rect x="90" y="210" width="40" height="40" fill="#748ffc" rx="4"/>
  <rect x="140" y="210" width="40" height="40" fill="#20c997" rx="4"/>
  <rect x="190" y="210" width="40" height="40" fill="#ae3ec9" rx="4"/>
  <rect x="240" y="210" width="30" height="40" fill="#339af0" rx="4"/>
  <rect x="90" y="260" width="40" height="40" fill="#40c057" rx="4"/>
  <rect x="140" y="260" width="40" height="40" fill="#ffd43b" rx="4"/>
  <rect x="190" y="260" width="40" height="40" fill="#f06595" rx="4"/>
  <rect x="240" y="260" width="30" height="40" fill="#4fc3f7" rx="4"/>
  <!-- Palette icon -->
  <circle cx="350" cy="200" r="90" fill="none" stroke="#40c057" stroke-width="6"/>
  <circle cx="350" cy="200" r="90" fill="none" stroke="#ffd43b" stroke-width="6" stroke-dasharray="140 350" stroke-dashoffset="-35"/>
  <circle cx="350" cy="200" r="90" fill="none" stroke="#ff6b6b" stroke-width="6" stroke-dasharray="50 350" stroke-dashoffset="-175"/>
  <circle cx="350" cy="200" r="90" fill="none" stroke="#4fc3f7" stroke-width="6" stroke-dasharray="80 350" stroke-dashoffset="-260"/>
  <circle cx="350" cy="200" r="20" fill="#fff"/>
  <!-- Text -->
  <text x="256" y="400" font-family="Segoe UI,system-ui,sans-serif" font-size="36" font-weight="700" fill="#e0e0e0" text-anchor="middle" letter-spacing="2">PIXEL STUDIO</text>
</svg>
